<?xml version="1.0" encoding="utf-8"?>
<!-- Generator: Adobe Illustrator 20.0.0, SVG Export Plug-In . SVG Version: 6.00 Build 0)  -->
<svg version="1.1" id="圖層_1" xmlns="http://www.w3.org/2000/svg" xmlns:xlink="http://www.w3.org/1999/xlink" x="0px" y="0px"
	 viewBox="0 0 250 250" style="enable-background:new 0 0 250 250;" xml:space="preserve">
<style type="text/css">
	.st0{fill:#010101;}
	.st1{fill:#F9F9FA;stroke:#070808;stroke-miterlimit:10;}
	.st2{fill:#FFFEFF;}
</style>
<g>
	<g>
		<path class="st0" d="M89.6,24.1H9.9c-1.7,0-3.1,1.5-3.1,3.4v133.1c0,1.9,1.4,3.4,3.1,3.4h79.7c1.7,0,3.1-1.5,3.1-3.4V27.5
			C92.7,25.6,91.3,24.1,89.6,24.1z M86.4,157.2H13V30.8h73.4V157.2z M41.5,93.7c-0.5-0.4-1.1-0.6-1.7-0.8c0.2-1.1,0.9-2.2,1.9-2.8
			c1.9-1.1,4.3-0.4,5.3,1.7c0.7,1.3,1.5,2.7,2.3,3.9c-0.1,1-0.3,2-0.5,2.7C46.9,97.4,44.1,95.6,41.5,93.7z M22.8,62.8
			c0,1.1,0.1,2.1,0.5,3.2l6.3,16c0.4,1,1,1.9,1.7,2.6c-0.8,2.6-0.6,5,0.6,5.5c1.2,0.5,2.9-1.1,4-3.6c0.9,0,1.8-0.2,2.6-0.6l13-6
			c-0.1,0.1-0.2,0.2-0.2,0.4c-0.7,0.9-0.9,1.8-0.9,3.2c0,0.1,0.2,2.7,0.4,4.1c0.9,5.5,0.2,10.8-0.4,12.9c-2-0.4-6.1-2.3-9.6-4.5
			c-1.9-1.1-4.3-0.4-5.3,1.6c-1.1,2-0.4,4.6,1.5,5.7c8.3,5,12.7,5.8,15,5.6c1.3-0.1,2-0.6,2.4-0.8c1.6-1,2.7-2.9,3.4-5.3l4,8.2
			l-8.8,4.1c-1.2,0.6-2.2,1.7-2.6,3.1c-0.4,1.4-0.3,2.9,0.4,4.1l10,18.1c1,1.7,2.7,2.6,4.5,2.4c0.7-0.1,1.3-0.3,1.9-0.7
			c2.2-1.4,2.9-4.5,1.6-6.9l-7.3-13.2l13.9-6.5c2.4-1.1,3.5-4.1,2.5-6.6c-0.2-0.4-0.9-2.1-1.2-2.6L65.3,82.5c-1.5-3.1-4-5.2-6.5-5.8
			l6.6-3c0.9-0.4,1.6-1,2.2-1.6c2.4,0.9,4.7,0.7,5.2-0.6c0.5-1.3-1-3.1-3.2-4.3c0-1.1-0.1-2.1-0.5-3.2l-6.3-16c-0.4-1-1-1.9-1.8-2.6
			c0.8-2.6,0.6-5-0.6-5.5c-1.2-0.5-2.9,1.1-4,3.6c-0.9,0-1.8,0.2-2.6,0.6L27,56.2c-0.9,0.4-1.6,1-2.2,1.6c-2.4-0.9-4.7-0.7-5.2,0.6
			C19.1,59.8,20.5,61.6,22.8,62.8z M49.8,58.3c5.1-0.5,9.7,3.5,10.2,9c0.5,5.5-3.3,10.4-8.4,11c-5.1,0.5-9.7-3.5-10.2-9
			C40.9,63.8,44.7,58.9,49.8,58.3z"/>
	</g>
	<g>
	</g>
	<g>
	</g>
	<g>
	</g>
	<g>
	</g>
	<g>
	</g>
	<g>
	</g>
	<g>
	</g>
	<g>
	</g>
	<g>
	</g>
	<g>
	</g>
	<g>
	</g>
	<g>
	</g>
	<g>
	</g>
	<g>
	</g>
	<g>
	</g>
</g>
<g>
	<g>
		<path class="st0" d="M242.3,75.5h-80c-1.7,0-3.1,1.5-3.1,3.3v128.8c0,1.8,1.4,3.3,3.1,3.3h80c1.7,0,3.1-1.5,3.1-3.3V78.8
			C245.5,77,244.1,75.5,242.3,75.5z M239.2,108.9c-0.1,0-0.2,0-0.3,0c-0.3-0.8-0.9-1.6-1.5-2.3l-20.8-21.2c-0.7-0.7-1.4-1.2-2.3-1.5
			c0-0.6-0.1-1.2-0.3-1.8h25.2L239.2,108.9L239.2,108.9z M165.4,204.3V82.1h44.1c-0.1,0.5-0.2,1.1-0.2,1.7c-0.9,0.4-1.8,0.9-2.5,1.7
			l-11.4,12c-0.7,0.8-1.2,1.7-1.6,2.7c-2.5,0.2-4.5,1.3-4.5,2.6c0,1.4,2.1,2.4,4.6,2.6c0.3,0.8,0.9,1.6,1.5,2.3l10.1,10.3
			c-0.2-2.5-0.5-5.3-1.2-8.4c-0.5-2.6,1.1-5.2,3.6-5.8c2.5-0.6,5,1.1,5.6,3.8c1.6,8.1,1.9,14.6,1.2,19.9l1.5,1.5
			c0.7,0.7,1.4,1.2,2.3,1.5c0.2,2.7,1.2,4.8,2.5,4.8c1.3,0,2.3-2.1,2.4-4.7c0.9-0.4,1.8-0.9,2.5-1.7l11.3-12
			c0.7-0.8,1.2-1.7,1.6-2.7c0.1,0,0.1,0,0.2,0v90.2L165.4,204.3L165.4,204.3z M205.6,117.9l9.3,9.5c-0.6,5-1.9,8.8-3.6,11.8
			l7.1,24.4c0.2,0.6,0.3,1.3,0.4,1.9c6.1-6.6,7.9-17,7.9-17.2c0.4-2.2,2.4-3.7,4.5-3.3c2.1,0.4,3.6,2.5,3.2,4.7
			c-0.1,0.8-3.1,17.8-14.6,25.4c2.1,1.3,3.8,3.3,4.5,5.9c1.6,5.4-1.4,11.1-6.5,12.7c-5.2,1.6-10.7-1.4-12.2-6.8
			c-0.6-2.2-0.5-4.4,0.2-6.3c-1.9,0.7-3.7,1.4-5.1,2.1c0.9,0.1,2,0.2,3.3,0.3c-0.2,1.4-0.1,2.8,0.3,4.2c0.5,1.7,1.4,3.1,2.5,4.2
			c-12.4-0.7-17-2.6-17.5-7.1c-0.2-2.1-0.7-6.2,14.1-11.5c-0.9-1.1-1.6-2.3-2-3.7l-6.8-23.4l-15.7-26.7c-1.4-2.3-0.7-5.3,1.6-6.7
			c2.2-1.4,5.1-0.7,6.5,1.6l13.1,22.3c0.3-0.1,0.5-0.2,0.8-0.3l0.7-0.2c0.4-0.1,0.9-0.3,1.3-0.4
			C204.5,132.2,206.3,126.9,205.6,117.9z"/>
	</g>
	<g>
	</g>
	<g>
	</g>
	<g>
	</g>
	<g>
	</g>
	<g>
	</g>
	<g>
	</g>
	<g>
	</g>
	<g>
	</g>
	<g>
	</g>
	<g>
	</g>
	<g>
	</g>
	<g>
	</g>
	<g>
	</g>
	<g>
	</g>
	<g>
	</g>
</g>
<path class="st1" d="M51.5,78.4L49,78.2c-1.5-0.2-2.7-1.6-2.5-3.1l1-8.6c0.2-1.5,1.6-2.7,3.1-2.5l2.6,0.3c1.5,0.2,2.7,1.6,2.5,3.1
	l-1,8.6C54.5,77.5,53.1,78.6,51.5,78.4z"/>
<path class="st1" d="M210.9,195.9l-2.4,1c-1.4,0.6-3.1-0.1-3.7-1.5l-3.3-8c-0.6-1.4,0.1-3.1,1.5-3.7l2.4-1c1.4-0.6,3.1,0.1,3.7,1.5
	l3.3,8C213,193.6,212.3,195.3,210.9,195.9z"/>
<g>
	<g>
		<ellipse class="st0" cx="127.6" cy="41.1" rx="1.3" ry="1.5"/>
		<path class="st0" d="M108.5,41.1c0,12.1,8.6,22,19.2,22s19.2-9.9,19.2-22s-8.6-22-19.2-22S108.5,29,108.5,41.1z M128.3,25.7
			c0,0.4-0.3,0.7-0.6,0.7s-0.6-0.3-0.6-0.7v-0.7c0-0.4,0.3-0.7,0.6-0.7s0.6,0.3,0.6,0.7V25.7z M140.4,41.1c0-0.4,0.3-0.7,0.6-0.7
			h0.6c0.4,0,0.6,0.3,0.6,0.7s-0.3,0.7-0.6,0.7H141C140.7,41.8,140.4,41.5,140.4,41.1z M136.7,51.4c0.2-0.3,0.7-0.3,0.9,0l0.5,0.5
			c0.2,0.3,0.2,0.7,0,1c-0.1,0.1-0.3,0.2-0.5,0.2c-0.2,0-0.3-0.1-0.5-0.2l-0.5-0.5C136.4,52.2,136.4,51.7,136.7,51.4z M136.7,29.7
			l0.5-0.5c0.2-0.3,0.7-0.3,0.9,0s0.2,0.7,0,1l-0.5,0.5c-0.1,0.1-0.3,0.2-0.5,0.2c-0.2,0-0.3-0.1-0.5-0.2
			C136.4,30.4,136.4,29.9,136.7,29.7z M127,56.4c0-0.4,0.3-0.7,0.6-0.7s0.6,0.3,0.6,0.7v0.7c0,0.4-0.3,0.7-0.6,0.7s-0.6-0.3-0.6-0.7
			V56.4z M125.1,41.1c0-1.4,0.8-2.5,1.9-2.8v-7.4c0-0.4,0.3-0.7,0.6-0.7s0.6,0.3,0.6,0.7v7.4c0.9,0.3,1.6,1.1,1.8,2.1h4.6
			c0.4,0,0.6,0.3,0.6,0.7s-0.3,0.7-0.6,0.7h-4.6c-0.3,1.3-1.3,2.2-2.5,2.2C126.2,44,125.1,42.7,125.1,41.1z M117.2,51.9l0.5-0.5
			c0.2-0.3,0.7-0.3,0.9,0c0.2,0.3,0.2,0.7,0,1l-0.5,0.5c-0.1,0.1-0.3,0.2-0.5,0.2c-0.2,0-0.3-0.1-0.5-0.2
			C117,52.7,117,52.2,117.2,51.9z M117.2,29.1c0.2-0.3,0.7-0.3,0.9,0l0.5,0.5c0.2,0.3,0.2,0.7,0,1c-0.1,0.1-0.3,0.2-0.5,0.2
			c-0.2,0-0.3-0.1-0.5-0.2l-0.5-0.5C117,29.9,117,29.4,117.2,29.1z M112.9,41.1c0-0.4,0.3-0.7,0.6-0.7h0.6c0.4,0,0.6,0.3,0.6,0.7
			s-0.3,0.7-0.6,0.7h-0.6C113.2,41.8,112.9,41.5,112.9,41.1z"/>
	</g>
	<g>
	</g>
	<g>
	</g>
	<g>
	</g>
	<g>
	</g>
	<g>
	</g>
	<g>
	</g>
	<g>
	</g>
	<g>
	</g>
	<g>
	</g>
	<g>
	</g>
	<g>
	</g>
	<g>
	</g>
	<g>
	</g>
	<g>
	</g>
	<g>
	</g>
</g>
<g>
	<path class="st2" d="M147.6,42.3"/>
	<g>
		<path class="st2" d="M147.4,42.6c0.3,0,0.9-0.5,0.3-0.5C147.5,42.1,146.9,42.6,147.4,42.6L147.4,42.6z"/>
	</g>
</g>
<g>
	<path class="st2" d="M149.5,39.9"/>
	<g>
		<path class="st2" d="M149.3,40.2c0.3,0,0.9-0.5,0.3-0.5C149.4,39.7,148.8,40.2,149.3,40.2L149.3,40.2z"/>
	</g>
</g>
</svg>
