<?xml version="1.0" encoding="utf-8"?>
<!-- Generator: Adobe Illustrator 20.0.0, SVG Export Plug-In . SVG Version: 6.00 Build 0)  -->
<svg version="1.1" id="圖層_1" xmlns="http://www.w3.org/2000/svg" xmlns:xlink="http://www.w3.org/1999/xlink" x="0px" y="0px"
	 viewBox="0 0 250 250" style="enable-background:new 0 0 250 250;" xml:space="preserve">
<style type="text/css">
	.st0{fill:#010101;stroke:#FFFEFE;stroke-miterlimit:10;}
	.st1{fill:#040305;stroke:#F7F7F7;stroke-miterlimit:10;}
	.st2{fill:#010101;stroke:#F9F9FA;stroke-miterlimit:10;}
	.st3{fill:none;stroke:#010101;stroke-miterlimit:10;}
	.st4{fill:#D85B4A;}
</style>
<ellipse class="st0" cx="104.4" cy="55.1" rx="17.5" ry="19.4"/>
<g>
	<g>
		<g>
			<path class="st1" d="M126.4,193.8h4.9"/>
			<path class="st1" d="M120.9,259.4"/>
			<path class="st1" d="M141.4,174.9l0.3-14.4c0-3.4,0-8.3,0-11.7c4,10.8,5.3,23.5,6.2,36.2c0.7,10.4,10.7,10.5,10,0
				c-2.7-49-16.9-58.8-16.9-58.8s-13.7-13.6-28.2,3.7c-9.4,14-11.5,35.4-13,56.1c-0.7,10.5,9.2,10.4,10,0
				c0.9-12.3,2.1-24.7,5.9-35.3l0,11.9l0,12.7l0-0.7"/>
			<path class="st1" d="M141.3,162.7"/>
		</g>
	</g>
	<g>
	</g>
	<g>
	</g>
	<g>
	</g>
	<g>
	</g>
	<g>
	</g>
	<g>
	</g>
	<g>
	</g>
	<g>
	</g>
	<g>
	</g>
	<g>
	</g>
	<g>
	</g>
	<g>
	</g>
	<g>
	</g>
	<g>
	</g>
	<g>
	</g>
</g>
<path class="st0" d="M142.9,133h-28.2c-1.6,0-2.8-1.3-2.8-2.8V95c0-1.6,1.3-2.8,2.8-2.8h28.2c1.6,0,2.8,1.3,2.8,2.8v35.2
	C145.7,131.8,144.4,133,142.9,133z"/>
<g>
	<g>
		<path class="st2" d="M150.9,100.3v-3l-17.7-6.5c-1.4-1.2-3.1-1.9-4.8-1.9c-1.8,0-3.4,0.7-4.8,1.9l-17.7,6.5v3H99v8.5h6.8v3
			l15.1,5.5v5h-1.9c-6.1,0-11.1,7.6-11.1,16.8v41.5c0,10.5,5,19.4,11.6,21.3v11.8c0,7.5,4,13.6,8.9,13.6c4.9,0,8.9-6.1,8.9-13.6
			v-11.8c6.6-2,11.6-10.8,11.6-21.3V139c0-9.3-5-16.8-11.1-16.8h-1.9v-5l15.1-5.5v-3h6.8v-8.5H150.9z M131.7,202.2v11.4
			c0,2.8-1.5,5.1-3.4,5.1c-1.9,0-3.4-2.3-3.4-5.1v-11.4v-10.6c0-2.8,1.5-5.1,3.4-5.1s3.4,2.3,3.4,5.1V202.2z M131.1,130.6v48h-0.2
			c-0.8-0.4-1.7-0.6-2.6-0.6c-0.9,0-1.7,0.2-2.6,0.6h-0.2v-48H131.1z M126.4,122.2v-3.5h1.6c0.1,0,0.2,0,0.4,0c0.1,0,0.2,0,0.4,0
			h1.6v3.5H126.4z M128.6,110.2h-0.5c-2.2-0.2-4-3-4-6.4c0-3.6,1.9-6.4,4.2-6.4s4.2,2.9,4.2,6.4C132.6,107.2,130.8,110,128.6,110.2z
			"/>
	</g>
</g>
<g>
</g>
<g>
</g>
<g>
</g>
<g>
</g>
<g>
</g>
<g>
</g>
<g>
</g>
<g>
</g>
<g>
</g>
<g>
</g>
<g>
</g>
<g>
</g>
<g>
</g>
<g>
</g>
<g>
</g>
<ellipse class="st0" cx="128.3" cy="48.9" rx="17.5" ry="19.4"/>
<g>
	<g>
		<g>
			<path class="st1" d="M131.7,105.5"/>
			<path class="st1" d="M118.2,138.7"/>
			<path class="st1" d="M144.9,95.9l0.4-7.3c0-1.7,0-4.2,0-5.9c5.2,5.5,6.9,11.9,8.1,18.4c1,5.3,14,5.3,13,0
				c-3.4-24.9-21.9-29.8-21.9-29.8s-17.8-6.9-36.6,1.9c-12.2,7.1-15,18-16.9,28.5c-1,5.3,12,5.3,13,0c1.1-6.3,2.8-12.5,7.6-17.9l0,6
				l-0.1,6.4l0-0.3"/>
			<path class="st1" d="M144.7,89.7"/>
		</g>
	</g>
	<g>
	</g>
	<g>
	</g>
	<g>
	</g>
	<g>
	</g>
	<g>
	</g>
	<g>
	</g>
	<g>
	</g>
	<g>
	</g>
	<g>
	</g>
	<g>
	</g>
	<g>
	</g>
	<g>
	</g>
	<g>
	</g>
	<g>
	</g>
	<g>
	</g>
</g>
<path class="st2" d="M128.5,89l-17.7,6.5"/>
<path class="st2" d="M145.9,95.4L128.2,89"/>
<path class="st3" d="M71.1,201.2c-12,10.4,3.6,10.5,3.6,10.5c-2.9,14.3,6.4,3.2,6.4,3.2c1.4,8,13.9,3.4,13.9,3.4s-5.1-0.6-7-6.9
	c-0.8-2.6,4.3-2.2,4.3-2.2s7.7-1,0-11.6c2.4,3.4,3.4-18-9.1-8.3"/>
<path class="st3" d="M83.1,189.7c-9-8.8-18.5,5.4-11.3,12.9"/>
<path class="st3" d="M86.8,202.9c-4-6.3-9.1-0.4-5.9,5"/>
<g>
	<path class="st4" d="M176,60.9c0.8-2.4,2.6-4,4.6-4c2.8,0,4.8,3,5.1,6.7c0,0,0.1,0.9-0.2,2.5c-0.4,2.2-1.4,4.2-2.7,5.7l-6.9,7.8
		l-6.8-7.8c-1.3-1.5-2.3-3.5-2.7-5.7c-0.3-1.6-0.2-2.5-0.2-2.5c0.3-3.6,2.3-6.7,5.1-6.7C173.5,56.9,175.2,58.6,176,60.9z"/>
	<g>
	</g>
	<g>
	</g>
	<g>
	</g>
	<g>
	</g>
	<g>
	</g>
	<g>
	</g>
	<g>
	</g>
	<g>
	</g>
	<g>
	</g>
	<g>
	</g>
	<g>
	</g>
	<g>
	</g>
	<g>
	</g>
	<g>
	</g>
	<g>
	</g>
</g>
<g>
	<path class="st4" d="M162.8,29.9c0.6-1.9,2-3.2,3.7-3.2c2.2,0,3.8,2.4,4,5.3c0,0,0.1,0.7-0.1,2c-0.3,1.8-1.1,3.3-2.1,4.5l-5.5,6.2
		l-5.4-6.2c-1-1.2-1.8-2.7-2.1-4.5c-0.2-1.3-0.1-2-0.1-2c0.2-2.9,1.8-5.3,4-5.3C160.8,26.7,162.2,28,162.8,29.9z"/>
	<g>
	</g>
	<g>
	</g>
	<g>
	</g>
	<g>
	</g>
	<g>
	</g>
	<g>
	</g>
	<g>
	</g>
	<g>
	</g>
	<g>
	</g>
	<g>
	</g>
	<g>
	</g>
	<g>
	</g>
	<g>
	</g>
	<g>
	</g>
	<g>
	</g>
</g>
<g>
	<path class="st4" d="M185.7,17.1c0.4-1.2,1.3-2.1,2.4-2.1c1.4,0,2.5,1.6,2.6,3.5c0,0,0.1,0.5-0.1,1.3c-0.2,1.1-0.7,2.2-1.4,2.9
		l-3.5,4l-3.5-4c-0.7-0.8-1.2-1.8-1.4-2.9c-0.2-0.8-0.1-1.3-0.1-1.3c0.1-1.9,1.2-3.5,2.6-3.5C184.4,15,185.3,15.8,185.7,17.1z"/>
	<g>
	</g>
	<g>
	</g>
	<g>
	</g>
	<g>
	</g>
	<g>
	</g>
	<g>
	</g>
	<g>
	</g>
	<g>
	</g>
	<g>
	</g>
	<g>
	</g>
	<g>
	</g>
	<g>
	</g>
	<g>
	</g>
	<g>
	</g>
	<g>
	</g>
</g>
</svg>
