<?xml version="1.0" encoding="utf-8"?>
<!-- Generator: Adobe Illustrator 20.0.0, SVG Export Plug-In . SVG Version: 6.00 Build 0)  -->
<svg version="1.1" id="圖層_1" xmlns="http://www.w3.org/2000/svg" xmlns:xlink="http://www.w3.org/1999/xlink" x="0px" y="0px"
	 viewBox="0 0 250 250" style="enable-background:new 0 0 250 250;" xml:space="preserve">
<style type="text/css">
	.st0{fill:#010101;}
</style>
<g>
	<g>
		<g>
			<path class="st0" d="M219.6,209.6l-5.8-41.6l-0.7-27l0.1,0c-4.3-52-0.3-3.8-4.7-56.8c-0.5-5.9-5.6-10.4-11.5-10.1
				c-5.2,0.2-16.6,0.9-16.6,0.9l-16-8.1L152,40.5c-1.7-3.7-6.1-5.2-9.8-3.5c-3.7,1.7-5.2,6.1-3.5,9.8l13.5,28.6
				c0.7,1.5,1.9,2.7,3.3,3.4l16,8.1l2.2,27.2l6.6-6.7c0,0,5.6-13.4,5.9-13.4l-2,18.4l-17.5,18c-2.8,2.9-2.8,7.5,0.1,10.4
				c2.9,2.8,7.5,2.8,10.4-0.1l19.3-19.8c1.1-1.2,1.9-2.7,2-4.3l2.5-23.4l3.7,24.1c0.6,4.1-1.9,6.1-3.8,8l-16.7,17.1
				c-2.8,2.9-5.9,6.8-12.3,6.8l-5.5,14.9c-0.3,0.8-0.5,1.6-0.5,2.5l-2.9,43.8c-0.3,5.1,3.7,9.4,8.8,9.4c4.6,0,8.5-3.6,8.8-8.2
				l2.8-42.6l9.9-27l2-0.1l0.7,27.2c0,0.3,0,0.7,0.1,1l5.9,42.1c0.7,4.8,5.1,8.2,9.9,7.5C216.9,218.9,220.2,214.4,219.6,209.6z"/>
		</g>
	</g>
	<g>
		<g>
			<circle class="st0" cx="185.6" cy="53.5" r="15.1"/>
		</g>
	</g>
	<g>
		<g>
			<path class="st0" d="M230.1,41.1c-0.3-1.6-1.9-2.7-3.6-2.4l-17.8,3.6c-1.6,0.3-2.7,1.9-2.4,3.6c0.3,1.6,1.9,2.7,3.6,2.4l17.8-3.6
				C229.4,44.3,230.4,42.7,230.1,41.1z"/>
		</g>
	</g>
	<g>
		<g>
			<path class="st0" d="M223.7,18.3c-1.2-1.2-3.1-1.2-4.3-0.1l-16.9,16.2c-1.2,1.2-1.2,3.1-0.1,4.3c1.2,1.2,3.1,1.2,4.3,0.1
				l16.9-16.2C224.9,21.4,224.9,19.5,223.7,18.3z"/>
		</g>
	</g>
	<g>
		<g>
			<circle class="st0" cx="78.3" cy="58.6" r="14.5"/>
		</g>
	</g>
	<g>
		<g>
			<path class="st0" d="M129.9,83.7c-1.9-3.1-6-4-9.1-2.1L99.5,95L83.9,84.9L94.3,88l-0.4-2.2c-0.8-4.3-4.3-7.4-8.3-7.4
				c-5.2,0-8.9,0-14.6,0c-2,0-3.9,0.8-5.4,2.1c-0.6,0.3,1.2-0.9-24.2,16.2c-1.6,1.1-2.6,2.8-2.9,4.6c-0.2,1.9,0.4,3.8,1.6,5.2
				L55.7,124l-6,32.6c-0.4,2.4,1.3,4.6,3.5,4.6c2.2,0,5.2,0,8.5,0v50c0,4.6,3.8,8.4,8.4,8.4c1.1,0,2.2-0.2,3.2-0.6
				c-1.6-2.2-2.5-4.9-2.5-7.8v-50c1.7,0,3.4,0,5.1,0v50c0,4.6,3.8,8.4,8.4,8.4c4.6,0,8.4-3.8,8.4-8.4v-50c1.5,0,9.3,0,10.5,0
				c2.3,0,4-2.2,3.5-4.6L99.6,117c-2.7,0.1-5.4-1-7.2-3.1l-15.6-18l19.2,12.5c2.1,1.4,4.9,1.4,7.1,0.1l24.9-15.7
				C131,90.8,131.9,86.7,129.9,83.7z M58.7,107.6l-3.7-4.1l5.1-3.4L58.7,107.6z"/>
		</g>
	</g>
	<g>
		<g>
			<path class="st0" d="M55.1,47.1l-17.8-3.6c-1.6-0.3-3.2,0.7-3.6,2.4c-0.3,1.6,0.7,3.2,2.4,3.6L53.9,53c1.6,0.3,3.2-0.7,3.6-2.4
				C57.8,49,56.7,47.4,55.1,47.1z"/>
		</g>
	</g>
	<g>
		<g>
			<path class="st0" d="M61.3,39.2L44.4,23c-1.2-1.2-3.1-1.1-4.3,0.1c-1.2,1.2-1.1,3.1,0.1,4.3l16.9,16.2c1.2,1.2,3.1,1.1,4.3-0.1
				C62.5,42.2,62.5,40.3,61.3,39.2z"/>
		</g>
	</g>
	<g>
	</g>
	<g>
	</g>
	<g>
	</g>
	<g>
	</g>
	<g>
	</g>
	<g>
	</g>
	<g>
	</g>
	<g>
	</g>
	<g>
	</g>
	<g>
	</g>
	<g>
	</g>
	<g>
	</g>
	<g>
	</g>
	<g>
	</g>
	<g>
	</g>
</g>
</svg>
