<?xml version="1.0" encoding="utf-8"?>
<!-- Generator: Adobe Illustrator 20.0.0, SVG Export Plug-In . SVG Version: 6.00 Build 0)  -->
<svg version="1.1" id="圖層_1" xmlns="http://www.w3.org/2000/svg" xmlns:xlink="http://www.w3.org/1999/xlink" x="0px" y="0px"
	 viewBox="0 0 250 250" style="enable-background:new 0 0 250 250;" xml:space="preserve">
<style type="text/css">
	.st0{opacity:0.8;fill:none;stroke:#040305;stroke-miterlimit:10;}
	.st1{fill:#040305;}
	.st2{fill:none;stroke:#040305;stroke-miterlimit:10;}
	.st3{opacity:0.8;}
	.st4{fill:#010101;}
</style>
<path class="st0" d="M130.9,228.8"/>
<path class="st0" d="M120.5,228.2"/>
<path class="st0" d="M134.5,229.2"/>
<g>
	<g>
		<g>
			<g>
				<path class="st1" d="M30,86.4"/>
			</g>
		</g>
		<g>
		</g>
		<g>
		</g>
		<g>
		</g>
		<g>
		</g>
		<g>
		</g>
		<g>
		</g>
		<g>
		</g>
		<g>
		</g>
		<g>
		</g>
		<g>
		</g>
		<g>
		</g>
		<g>
		</g>
		<g>
		</g>
		<g>
		</g>
		<g>
		</g>
	</g>
	<ellipse class="st1" cx="42.6" cy="86.9" rx="17.9" ry="20.6"/>
	<path class="st2" d="M43.1,110.2c18.8-0.4,20.4-20.7,20.4-20.7"/>
	<path class="st2" d="M60.3,162"/>
	<g id="XMLID_1_">
		<g>
			<path class="st1" d="M40.8,149.8v78.7c-9.8,11-14.4,0-14.4,0l-1.1-67.1c6.4,2.5,11.2-5.4,11.2-5.4s-5.5-39.5-7.2-42.3
				c-1.7-2.8-2.1,0.5-2.1,0.5l6.3,40.9c-5.5,8.4-11.3,2.2-11.3,2.2s-5.7-40.5-7.2-54.2C14,92,20,90.8,23.1,90
				c0.1,2,1.6,19.1,19.3,19.5C61.2,110,62.5,89,62,88.9c-0.5-0.1,11.2,0.5,9.8,14.3c-1.4,13.8-7.2,54.2-7.2,54.2s-2,2.2-4.8,2.2
				c-1.9,0-4.2-1-6.4-4.4l6-38.9h0l0.3-2.1c0,0-0.4-3.3-2.1-0.5c-1.7,2.8-7.5,41.3-7.5,41.3s3.3,6.8,9.8,6.4v1.9v65.1
				c0,0-4.7,11-14.7,0v-78.7c0,0-1.1-1.2-2.3-1.6C41.8,148.6,40.8,149.8,40.8,149.8z"/>
		</g>
		<g>
			<path class="st2" d="M59.7,114.3l-0.3,2.1l-6,38.9c2.2,3.4,4.5,4.4,6.4,4.4c2.8,0,4.8-2.2,4.8-2.2s5.7-40.5,7.2-54.2
				c1.4-13.8-10.3-14.4-9.8-14.3c0.5,0.1-0.8,21.1-19.6,20.6C24.6,109.2,23.2,92,23.1,90c0-0.1,0-0.2,0-0.2"/>
			<path class="st2" d="M23.8,89.9c-0.2,0.1-0.5,0.1-0.7,0.2c-3.1,0.7-9.1,2-7.9,13.1c1.4,13.8,7.2,54.2,7.2,54.2s5.7,6.2,11.3-2.2
				l-6.3-40.9c0,0,0.4-3.3,2.1-0.5c1.7,2.8,7.2,42.3,7.2,42.3s-4.7,7.8-11.2,5.4l1.1,67.1c0,0,4.6,11,14.4,0v-78.7
				c0,0,1-1.2,2.2-1.6c1-0.4,2.1-0.2,2.8,1.6c0.1,0.3,0.3,0.6,0.4,0.9"/>
			<path class="st2" d="M59.4,116.3l0.3-2.1c0,0-0.4-3.3-2.1-0.5c-1.7,2.8-7.5,41.3-7.5,41.3s3.3,6.8,9.8,6.4c0.2,0,0.4,0,0.6-0.1"
				/>
			<path class="st2" d="M59.9,161.4L59.9,161.4v2v65.1c0,0-4.7,11-14.7,0v-78.7c0,0-1.1-1.2-2.3-1.6c-1-0.3-2.1-0.2-2.8,1.6
				c-0.1,0.3-0.3,0.6-0.4,0.9"/>
		</g>
	</g>
</g>
<path class="st0" d="M201,181.5"/>
<path class="st0" d="M164.9,80.4"/>
<g class="st3">
	<g>
		<path class="st4" d="M191.6,75.7c-4.9,2.3-10.6,2.3-15.5,0c-2.7,2.2-4.5,5.6-4.5,9.5h24.5C196.1,81.3,194.4,77.9,191.6,75.7z"/>
		<path class="st4" d="M183.9,75.7c9.1,0,16.5-7.4,16.5-16.5c0-9.1-7.4-16.5-16.5-16.5c-9.1,0-16.5,7.4-16.5,16.5
			C167.3,68.3,174.7,75.7,183.9,75.7z M169.1,58.4c7.5,1.4,14.9-0.9,20.1-5.8c1.7,4.1,5,7.4,9.2,9.2c-1.2,6.9-7.3,12.2-14.6,12.2
			c-8.2,0-14.8-6.6-14.8-14.8C169.1,58.9,169.1,58.6,169.1,58.4z"/>
		<circle class="st4" cx="177.2" cy="61.2" r="1.7"/>
		<circle class="st4" cx="190.5" cy="61.2" r="1.7"/>
		<path class="st4" d="M183.9,71.1c1.6,0,3-0.7,3.6-1.7c0.2-0.4,0.1-0.9-0.3-1.2c-0.4-0.2-0.9-0.1-1.2,0.3c-0.2,0.4-1,0.8-2.1,0.8
			c-1.1,0-1.9-0.4-2.1-0.8c-0.2-0.4-0.8-0.5-1.2-0.3c-0.4,0.2-0.5,0.8-0.3,1.2C180.9,70.4,182.3,71.1,183.9,71.1z"/>
	</g>
	<g>
	</g>
	<g>
	</g>
	<g>
	</g>
	<g>
	</g>
	<g>
	</g>
	<g>
	</g>
	<g>
	</g>
	<g>
	</g>
	<g>
	</g>
	<g>
	</g>
	<g>
	</g>
	<g>
	</g>
	<g>
	</g>
	<g>
	</g>
	<g>
	</g>
</g>
<g class="st3">
	<g>
		<g>
			<g id="Sun_1_">
				<g>
					<path class="st4" d="M104.2,110.2c0-1.1-0.8-1.9-1.9-1.9h-3.7c-1,0-1.9,0.9-1.9,1.9c0,1.1,0.8,1.9,1.9,1.9h3.7
						C103.3,112.1,104.2,111.2,104.2,110.2z M106,121.1c-0.5,0-1,0.2-1.3,0.6l-2.5,2.6c-0.3,0.3-0.5,0.8-0.5,1.4
						c0,1.1,0.8,1.9,1.9,1.9c0.5,0,1-0.2,1.3-0.6l2.5-2.6c0.3-0.3,0.5-0.8,0.5-1.4C107.9,122,107.1,121.1,106,121.1z M118.4,95.4
						c1,0,1.9-0.9,1.9-1.9v-3.9c0-1.1-0.8-1.9-1.9-1.9s-1.9,0.9-1.9,1.9v3.9C116.5,94.5,117.3,95.4,118.4,95.4z M130.7,99.2
						c0.5,0,1-0.2,1.3-0.6l2.5-2.6c0.3-0.3,0.5-0.8,0.5-1.4c0-1.1-0.8-1.9-1.9-1.9c-0.5,0-1,0.2-1.3,0.6l-2.5,2.6
						c-0.3,0.3-0.5,0.8-0.5,1.4C128.8,98.4,129.7,99.2,130.7,99.2z M104.7,98.7c0.3,0.3,0.8,0.6,1.3,0.6c1,0,1.9-0.9,1.9-1.9
						c0-0.5-0.2-1-0.5-1.4l-2.5-2.6c-0.3-0.3-0.8-0.6-1.3-0.6c-1,0-1.9,0.9-1.9,1.9c0,0.5,0.2,1,0.5,1.4L104.7,98.7z M138.1,108.2
						h-3.7c-1,0-1.9,0.9-1.9,1.9c0,1.1,0.8,1.9,1.9,1.9h3.7c1,0,1.9-0.9,1.9-1.9C140,109.1,139.1,108.2,138.1,108.2z M132,121.7
						c-0.3-0.3-0.8-0.6-1.3-0.6c-1,0-1.9,0.9-1.9,1.9c0,0.5,0.2,1,0.5,1.4l2.5,2.6c0.3,0.3,0.8,0.6,1.3,0.6c1,0,1.9-0.9,1.9-1.9
						c0-0.5-0.2-1-0.5-1.4L132,121.7z M118.4,124.9c-1,0-1.9,0.9-1.9,1.9v3.9c0,1.1,0.8,1.9,1.9,1.9s1.9-0.9,1.9-1.9v-3.9
						C120.2,125.8,119.4,124.9,118.4,124.9z M118.4,96.7c-7.1,0-13,6.1-13,13.5s5.8,13.5,13,13.5s13-6.1,13-13.5
						S125.5,96.7,118.4,96.7z M118.4,119.8c-5.1,0-9.3-4.3-9.3-9.6c0-5.3,4.1-9.6,9.3-9.6s9.3,4.3,9.3,9.6
						C127.6,115.5,123.5,119.8,118.4,119.8z"/>
				</g>
			</g>
		</g>
		<g>
		</g>
		<g>
		</g>
		<g>
		</g>
		<g>
		</g>
		<g>
		</g>
		<g>
		</g>
		<g>
		</g>
		<g>
		</g>
		<g>
		</g>
		<g>
		</g>
		<g>
		</g>
		<g>
		</g>
		<g>
		</g>
		<g>
		</g>
		<g>
		</g>
	</g>
	<g>
		<g>
			<path class="st4" d="M112.7,109.2c1.1,0,1.1-1.8,0-1.8C111.6,107.4,111.6,109.2,112.7,109.2z"/>
			<path class="st4" d="M124,109.2c1.1,0,1.1-1.8,0-1.8C122.9,107.4,122.9,109.2,124,109.2z"/>
			<path class="st4" d="M118.3,112.9c1.9,0,3.5-1.6,3.5-3.6c0-0.5-0.4-0.9-0.9-0.9c-0.5,0-0.9,0.4-0.9,0.9l0,0c0,1-0.8,1.8-1.7,1.8
				c-0.9,0-1.7-0.8-1.7-1.8l0,0c0-0.5-0.4-0.9-0.9-0.9s-0.9,0.4-0.9,0.9C114.9,111.3,116.4,112.9,118.3,112.9z"/>
		</g>
		<g>
		</g>
		<g>
		</g>
		<g>
		</g>
		<g>
		</g>
		<g>
		</g>
		<g>
		</g>
		<g>
		</g>
		<g>
		</g>
		<g>
		</g>
		<g>
		</g>
		<g>
		</g>
		<g>
		</g>
		<g>
		</g>
		<g>
		</g>
		<g>
		</g>
	</g>
</g>
<g class="st3">
	<g>
		<g>
			<path class="st4" d="M157.3,186.2h14.6c2,0,3.6-1.6,3.6-3.6c0-2-1.6-3.6-3.6-3.6h-12.5l-5.5-9.9l5.3,5.9l0.1-4.7
				c0.1-3.4-2.7-6.2-6-6.2l-5.6,0c-3.4,0-6.1,2.7-6.1,6.1l0.1,20.6c0,2.8,2,5.3,4.7,5.9h-7.7l-5.2-26.4c-0.3-1.6-1.9-2.7-3.5-2.4
				c-1.6,0.3-2.7,1.9-2.4,3.5l5.7,28.8c0.3,1.4,1.5,2.4,3,2.4h0.5l-6.4,16.6c-0.4,1,0.1,2.2,1.1,2.6c1,0.4,2.2-0.1,2.6-1.1l7-18
				h11.4l3.9,10.2l-1.3,3.2c-0.9,2.2,0.2,4.8,2.5,5.7c2.2,0.9,4.8-0.2,5.7-2.5l9.9-25c1.1-2.9-1-6-4.1-6l-13.4,0
				c-1.9-0.3-3.2-1.5-3.8-3c-1.4-3.6-2.6-7.3-3.4-11.2l5.7,10.1C154.8,185.5,156,186.2,157.3,186.2z M157.3,202.8L157.3,202.8
				c1.7,0,3-1.3,3-3c0-1.1-0.6-2.1-1.6-2.6l3.9,0l-4.1,10.3l-1.8-4.7L157.3,202.8L157.3,202.8z"/>
		</g>
	</g>
	<g>
		<g>
			<circle class="st4" cx="155.2" cy="153.4" r="8"/>
		</g>
	</g>
	<g>
		<g>
			<path class="st4" d="M199.3,145.9c-4.4,0.7-7.3,4.7-6.7,9.1c0,0.2,0.1,0.5,0.1,0.7l15.1-5C206.5,147.4,203,145.3,199.3,145.9z"/>
		</g>
	</g>
	<g>
		<g>
			<path class="st4" d="M222.3,200.5l5.6-28.7c0.3-1.6-0.7-3.2-2.4-3.5c-1.6-0.3-3.2,0.7-3.5,2.4l-5.2,26.2h-7.6
				c2.8-0.6,4.7-3.1,4.7-5.9l0.1-20.5c0-1.6-0.6-3.2-1.8-4.3c-1.1-1.1-3.2-1.5-4.3-1.8c-1.4-0.3-5.8-1.3-5.8-1.3l7.4-2.5
				c1.9-0.6,2.9-2.7,2.3-4.6c-0.6-1.9-2.7-2.9-4.6-2.3l-17.4,5.9c-1.5,0.5-2.4,1.9-2.5,3.4c0,1.5,1,2.9,2.4,3.4l11.3,3.9l-4.8-0.4
				c0,0,0.1,7.1,0.3,18.5l-10,0c0,0,0,0,0,0c-3.1,0-5.2,3.1-4,5.9l9.8,24.9c0.9,2.2,3.4,3.3,5.6,2.4c2.2-0.9,3.3-3.4,2.4-5.6
				l-1.3-3.2l3.9-10.1h11.4l6.9,17.9c0.4,1,1.6,1.5,2.6,1.1c1-0.4,1.5-1.6,1.1-2.6l-6.4-16.5h0.5
				C220.8,202.9,222.1,201.9,222.3,200.5z M197.2,207.6l-4.1-10.3l3.9,0c-0.9,0.5-1.6,1.5-1.6,2.6c0,1.7,1.3,3,3,3h0.5L197.2,207.6z
				"/>
		</g>
	</g>
	<g>
		<g>
			<path class="st4" d="M218.4,142.7c-0.9,0-1.6,0.7-1.6,1.6c0,0.9,0.7,1.6,1.6,1.6c0.9,0,1.6-0.8,1.6-1.6
				C220,143.4,219.3,142.7,218.4,142.7z"/>
		</g>
	</g>
	<g>
		<g>
			<path class="st4" d="M218.7,130.4c-2.8,0-4.1,1.7-4.1,2.8c0,0.8,0.7,1.2,1.3,1.2c1.1,0,0.7-1.6,2.8-1.6c1.1,0,1.9,0.5,1.9,1.4
				c0,1.1-1.2,1.8-1.9,2.4c-0.6,0.5-1.4,1.4-1.4,3.2c0,1.1,0.3,1.4,1.2,1.4c1,0,1.2-0.5,1.2-0.9c0-1.1,0-1.7,1.2-2.6
				c0.6-0.4,2.4-1.9,2.4-3.9S221.3,130.4,218.7,130.4z"/>
		</g>
	</g>
	<g>
	</g>
	<g>
	</g>
	<g>
	</g>
	<g>
	</g>
	<g>
	</g>
	<g>
	</g>
	<g>
	</g>
	<g>
	</g>
	<g>
	</g>
	<g>
	</g>
	<g>
	</g>
	<g>
	</g>
	<g>
	</g>
	<g>
	</g>
	<g>
	</g>
</g>
<g class="st3">
	<g>
		<g>
			<g>
				<path class="st4" d="M169.9,40.3c-1-4.3-3.4-8.9-7-11.5c-4-2.9-9.2-2.9-13.9-2.5c-9.4,0.9-16.8,7.9-16.3,17.8
					c0.4,7.4,7.9,15.8,15.9,13.3c-0.3,3.8,3.5,6.7,7.1,6.6c0.6,0,0.9-0.8,0.5-1.2c-1.2-1.4-1-3.2-0.1-4.7
					C165.7,57.7,172,50,169.9,40.3z M149.5,56.9c0.2-0.3,0.1-0.7-0.3-0.7c-3.4,0.1-6.4-0.1-9.4-2c-3.6-2.4-5.5-6.4-5.7-10.6
					c-0.1-4,1.4-7.9,4-10.9c3.1-3.5,7.4-4.6,11.9-4.9c3.7-0.2,7.8-0.1,11,1.9c3.3,2.1,5.7,6.2,6.8,9.9c1.2,4.2,1,9.2-2,12.6
					c-2.9,3.3-6.8,3.5-10.7,4.6c-0.3,0.1-0.4,0.3-0.4,0.5c-1.2,1.4-1.2,3.4-0.5,5.1c-1.2-0.2-2.3-0.8-3.1-1.6
					C150.1,59.6,149.8,58.3,149.5,56.9z"/>
				<path class="st4" d="M161.5,37.7c-0.9-1.1-2.4-1.3-3.6-0.8c-0.8,0.3-1.3,0.9-1.7,1.5c-0.5-0.7-1.3-1.3-2.3-1.4
					c-0.9-0.1-1.7,0.1-2.3,0.7c-0.8-0.2-1.6-0.1-2.2,0.2c-0.8,0.3-1.7,1.2-2.3,2c-0.3-1-0.8-1.8-1.7-2.2c-1.5-0.6-3.7,0.2-4.6,1.5
					c-2.5,3.7,4.6,7.9,6.7,9.6c0.3,0.2,0.5,0.2,0.8,0c1.7-1.4,3.2-2.9,4.4-4.9c1.3,1.3,3,2.3,4.4,2.8c0.4,0.1,0.8-0.1,0.9-0.4
					c0.1,0,0.2-0.1,0.3-0.1c1.5-1,2.5-3.1,3.2-4.6C162.1,40.6,162.5,39,161.5,37.7z M148,47.8c-1.7-1.4-3.6-2.7-5.1-4.3
					c-0.3-0.3-0.5-0.7-0.8-1c0.1-1,0.3-2,0.4-3.1c0.9-1,3.1,0.3,3.7,1c0.5,0.6,0.4,1.2,1,1.8c0.3,0.3,0.8,0,0.6-0.3
					c0-0.1-0.1-0.1-0.1-0.2c0.1-1,1.3-2.1,2.1-2.5c0.3-0.2,0.8-0.3,1.1-0.3c-0.1,0.1-0.1,0.2-0.1,0.3c-0.3,1.5,0.3,2.9,1.3,4.2
					C150.9,45.1,149.6,46.5,148,47.8z"/>
			</g>
		</g>
	</g>
	<g>
	</g>
	<g>
	</g>
	<g>
	</g>
	<g>
	</g>
	<g>
	</g>
	<g>
	</g>
	<g>
	</g>
	<g>
	</g>
	<g>
	</g>
	<g>
	</g>
	<g>
	</g>
	<g>
	</g>
	<g>
	</g>
	<g>
	</g>
	<g>
	</g>
</g>
</svg>
