<?xml version="1.0" encoding="utf-8"?>
<!-- Generator: Adobe Illustrator 20.0.0, SVG Export Plug-In . SVG Version: 6.00 Build 0)  -->
<svg version="1.1" id="圖層_1" xmlns="http://www.w3.org/2000/svg" xmlns:xlink="http://www.w3.org/1999/xlink" x="0px" y="0px"
	 viewBox="0 0 250 250" style="enable-background:new 0 0 250 250;" xml:space="preserve">
<style type="text/css">
	.st0{fill:#040305;}
</style>
<g>
	<g>
		<g>
			<path class="st0" d="M167.1,75.5c-17.3,18-21.7,25.1-41.8,16.6c-12,15.1-14.7,17.5-16.6,39.7c-1,11.3,11.8,11.2,12.8,0
				c1.1-13.3-12.8-28.8,7.5-38l0,12.8l-0.1,61.6v48.9c0,5.3,2.8,9.5,6.7,9.5c3.9,0,7.1-4.3,7.1-9.5l2.3-69.9h0.4
				c0,16.4,3.5,53.8,3.5,70.1c0,11.4,12.8,11.4,12.8,0c0-16.4,0-32.8,0-49.1l0.5-61.8c0-5.9,0-11.2,0-14.8c6.8,13.4,0.1,29.6-1.7,39
				c1.9,15.1,11.4,3.6,12.2-2.2c5.2-43.8-4.4-52.8-4.4-52.8"/>
		</g>
	</g>
	<g>
	</g>
	<g>
	</g>
	<g>
	</g>
	<g>
	</g>
	<g>
	</g>
	<g>
	</g>
	<g>
	</g>
	<g>
	</g>
	<g>
	</g>
	<g>
	</g>
	<g>
	</g>
	<g>
	</g>
	<g>
	</g>
	<g>
	</g>
	<g>
	</g>
</g>
<ellipse class="st0" cx="146.6" cy="40" rx="19.1" ry="21.7"/>
<g>
	<g>
		<g>
			<path class="st0" d="M165.5,73.2c0,1.1,1,2.1-15.2,16.9c-9.2,8.4-22.5,0.7-22.5,1.5l0,14.8l0.1,61.6V181c0,2.4-0.8,4.7-2.3,6.6
				l-0.8,1c-0.1,0.1-0.2,0.2-0.3,0.3l-32.2,23c-0.8,1-7.5,4.6-8.9,4.9c-4.8,1-9.1-3.4-7.1-10.1c0.1-0.3,3.3-3.6,3.5-3.8
				c3-2.6,24.8-17.2,30.5-21.7c0.8-0.6,1.2-1.6,1.2-2.6l-1.2-31.5H110c0,16.4-3.8,53.8-3.8,70.1c0,11.4-13.9,11.4-13.9,0
				c0-16.4,0-32.8,0-49.1l-0.6-61.8l0-2.5c0-2.1-3.2-2.2-3.2-0.1c-0.4,9.9,3.6,19.8,5,26.5c0,0.2,0,0.4,0,0.6
				c-2.2,14.6-12.4,3.3-13.2-2.5C70.9,76.7,90.4,68,92.4,67.3c0.1,0,0.2-0.1,0.3-0.2c1.9-1.4,19.9-13.4,38.9,4
				c0.1,0.1,0.1,0.1,0.2,0.2c13,15.1,31.5-21.3,33.5,0.9"/>
		</g>
	</g>
	<g>
	</g>
	<g>
	</g>
	<g>
	</g>
	<g>
	</g>
	<g>
	</g>
	<g>
	</g>
	<g>
	</g>
	<g>
	</g>
	<g>
	</g>
	<g>
	</g>
	<g>
	</g>
	<g>
	</g>
	<g>
	</g>
	<g>
	</g>
	<g>
	</g>
</g>
<path class="st0" d="M132,68.9c0.5,0.6,1,1.2,1.5,1.7c8,7.7,14.8,0.2,21.8-4.5"/>
<g>
	<g>
		<g>
			<path class="st0" d="M136.2,69.7c1.2-0.8-1.9,2-1.5,1.9c0.1,0-4.2-3.3-4.1-3.4c1.5-1.1,11.2-7.6,24.7-2.1"/>
		</g>
	</g>
	<g>
	</g>
	<g>
	</g>
	<g>
	</g>
	<g>
	</g>
	<g>
	</g>
	<g>
	</g>
	<g>
	</g>
	<g>
	</g>
	<g>
	</g>
	<g>
	</g>
	<g>
	</g>
	<g>
	</g>
	<g>
	</g>
	<g>
	</g>
	<g>
	</g>
</g>
<ellipse class="st0" cx="107.2" cy="38.7" rx="19.1" ry="21.7"/>
</svg>
